<?xml version="1.0" encoding="UTF-8" standalone="no"?>
<svg
   xmlns:dc="http://purl.org/dc/elements/1.1/"
   xmlns:cc="http://creativecommons.org/ns#"
   xmlns:rdf="http://www.w3.org/1999/02/22-rdf-syntax-ns#"
   xmlns:svg="http://www.w3.org/2000/svg"
   xmlns="http://www.w3.org/2000/svg"
   viewBox="0 0 1320 582.40002"
   height="582.40002"
   width="1320"
   xml:space="preserve"
   id="svg2"
   version="1.1"><metadata
     id="metadata8"><rdf:RDF><cc:Work
         rdf:about=""><dc:format>image/svg+xml</dc:format><dc:type
           rdf:resource="http://purl.org/dc/dcmitype/StillImage" /></cc:Work></rdf:RDF></metadata><defs
     id="defs6" /><g
     transform="matrix(1.3333333,0,0,-1.3333333,0,582.4)"
     id="g10"><g
       transform="scale(0.1)"
       id="g12"><path
         id="path14"
         style="fill:#ffffff;fill-opacity:1;fill-rule:nonzero;stroke:none"
         d="m 8181.37,2510.86 c -150.11,0 -276.64,100.79 -315.72,238.64 h 832.7 l 114.75,178.63 h -947.45 c 38.93,138.17 165.61,238.65 315.72,238.65 h 571.72 l 114.27,179.1 h -699.02 c -279.59,0 -506.44,-226.86 -506.44,-507.06 0,-279.89 226.85,-506.28 506.44,-506.28 h 601.34 l 114.28,178.32 H 8181.37 M 5798.49,2332.54 h 601.34 l 113.82,178.32 h -701.82 c -181.89,0 -328.43,147.15 -328.43,327.96 0,181.58 146.54,327.96 328.43,327.96 h 571.26 l 115.21,179.1 h -699.81 c -280.04,0 -507.52,-226.86 -507.52,-507.06 0,-279.89 227.48,-506.28 507.52,-506.28 M 2098.47,2510.86 H 1535.9 c -181.04,0 -327.74,147.15 -327.74,327.96 0,181.58 146.7,327.96 327.74,327.96 h 562.57 c 181.66,0 328.19,-146.38 328.19,-327.96 0,-180.81 -146.53,-327.96 -328.19,-327.96 m -575.52,-178.32 h 589 c 280.21,0 505.82,226.39 505.82,506.28 0,280.2 -225.61,507.06 -505.82,507.06 h -589 c -279.89,0 -506.91,-226.86 -506.91,-507.06 0,-279.89 227.02,-506.28 506.91,-506.28 m 2051.26,328.11 c 189.72,0 342.26,153.52 342.26,342.69 0,189.18 -152.54,342.54 -342.26,342.54 H 2721.67 V 2332.54 h 194.84 v 834.24 h 644.75 c 90.49,0 163.83,-73.04 163.83,-163.44 0,-90.24 -73.34,-164.52 -163.83,-164.52 l -549.47,0.46 581.96,-506.74 h 282.72 l -390.87,328.11 h 88.61 m 3223.36,-149.17 v 834.4 h -195.23 v -916.43 c 0,-24.97 10.55,-49.47 28.85,-67.14 18.61,-19.23 44.19,-29.77 71.02,-29.77 h 887.74 l 115.68,178.94 h -908.06 m -2384.89,178.33 h 519.78 l -274.62,443.17 -504.11,-800.44 h -230.28 l 613.75,960.62 c 26.21,38.92 71.17,62.49 120.33,62.49 48.07,0 92.26,-22.8 118.47,-60.78 l 615.6,-962.33 h -229.65 l -108.23,178.94 h -526.29 l -114.75,178.33" /><path
         id="path16"
         style="fill:#ffffff;fill-opacity:1;fill-rule:nonzero;stroke:none"
         d="m 1056.54,1061.41 v 91.42 c 81.76,-33.44 159.8,-50.17 234.14,-50.17 62.44,0 111.3,12.27 146.61,36.8 35.29,24.53 52.96,58.34 52.96,101.46 0,31.94 -10.78,58.34 -32.33,79.16 -21.57,20.8 -60.59,41.98 -117.07,63.54 l -85.85,33.45 c -72.1,28.24 -123.95,59.65 -155.53,94.22 -31.6,34.56 -47.39,75.25 -47.39,122.08 0,66.9 25.26,119.66 75.82,158.32 50.54,38.64 119.66,57.98 207.37,57.98 36.41,0 73.95,-4.29 112.61,-12.83 38.64,-8.55 71.72,-20.26 99.23,-35.11 v -91.43 c -75.82,32.7 -145.69,49.06 -209.61,49.06 -121.16,0 -181.73,-41.26 -181.73,-123.76 0,-27.51 10.77,-50.92 32.34,-70.24 21.54,-19.34 59.45,-39.77 113.72,-61.32 l 85.85,-33.45 c 74.31,-28.99 127.27,-61.51 158.87,-97.56 31.58,-36.06 47.39,-79.35 47.39,-129.88 0,-72.86 -25.84,-129.53 -77.49,-170.03 -51.67,-40.52 -123.95,-60.76 -216.86,-60.76 -28.25,0 -57.8,2.23 -88.63,6.68 -30.85,4.46 -59.65,10.41 -86.41,17.84 -26.76,7.42 -49.44,15.61 -68.01,24.53" /><path
         id="path18"
         style="fill:#ffffff;fill-opacity:1;fill-rule:nonzero;stroke:none"
         d="m 1959.62,1095.97 c 57.23,0 100.71,18.77 130.45,56.31 29.72,37.52 44.6,92.35 44.6,164.45 0,72.09 -14.88,126.91 -44.6,164.45 -29.74,37.53 -73.22,56.31 -130.45,56.31 -56.49,0 -99.61,-18.78 -129.33,-56.31 -29.74,-37.54 -44.6,-92.36 -44.6,-164.45 0,-72.1 14.86,-126.93 44.6,-164.45 29.72,-37.54 72.84,-56.31 129.33,-56.31 z m 0,-82.5 c -87.71,0 -155.72,26.93 -204.03,80.83 -48.32,53.89 -72.47,128.03 -72.47,222.43 0,95.14 24.15,169.47 72.47,222.98 48.31,53.52 116.32,80.28 204.03,80.28 88.45,0 156.83,-26.76 205.15,-80.28 48.31,-53.51 72.47,-127.84 72.47,-222.98 0,-94.4 -24.16,-168.54 -72.47,-222.43 -48.32,-53.9 -116.7,-80.83 -205.15,-80.83" /><path
         id="path20"
         style="fill:#ffffff;fill-opacity:1;fill-rule:nonzero;stroke:none"
         d="M 2356.54,1025.73 V 1785 l -57.98,36.79 v 41.25 h 158.32 v -837.31 h -100.34" /><path
         id="path22"
         style="fill:#ffffff;fill-opacity:1;fill-rule:nonzero;stroke:none"
         d="m 2789.12,1093.75 c 34.18,0 66.14,9.84 95.88,29.54 29.72,19.69 53.52,46.63 71.36,80.83 v 110.38 h -124.88 c -50.55,0 -87.9,-9.11 -112.05,-27.32 -24.16,-18.22 -36.23,-46.26 -36.23,-84.17 0,-33.45 9.48,-60.03 28.43,-79.72 18.95,-19.7 44.77,-29.54 77.49,-29.54 z m 198.45,-68.02 -16.72,93.66 c -47.57,-70.62 -112.24,-105.92 -194,-105.92 -58.72,0 -105.74,16.53 -141.03,49.61 -35.32,33.07 -52.96,77.11 -52.96,132.12 0,60.94 20.99,108.33 62.99,142.16 41.98,33.81 100.52,50.73 175.6,50.73 h 133.79 v 36.79 c 0,41.62 -9.11,70.97 -27.32,88.08 -18.22,17.09 -49.24,25.64 -93.09,25.64 -28.26,0 -58.36,-3.17 -90.31,-9.48 -31.97,-6.32 -68.01,-16.54 -108.15,-30.66 v 81.4 c 28.24,12.62 60.57,22.47 97,29.54 36.41,7.05 70.6,10.59 102.57,10.59 146.42,0 219.65,-65.05 219.65,-195.11 v -399.15 h -68.02" /><path
         id="path24"
         style="fill:#ffffff;fill-opacity:1;fill-rule:nonzero;stroke:none"
         d="m 3217.25,1025.73 v 582 h 68.01 l 20.07,-109.27 c 37.9,73.59 92.15,110.38 162.78,110.38 14.85,0 27.87,-1.11 39.02,-3.34 v -88.08 h -25.65 c -42.36,0 -77.68,-11.9 -105.91,-35.68 -28.26,-23.8 -47.58,-58.36 -57.98,-103.69 v -352.32 h -100.34" /><path
         id="path26"
         style="fill:#ffffff;fill-opacity:1;fill-rule:nonzero;stroke:none"
         d="m 3626.42,1742.63 v 90.31 h 122.64 v -90.31 z m 23.41,-716.9 v 503.95 l -57.98,36.79 v 41.26 h 158.32 v -582 h -100.34" /><path
         id="path28"
         style="fill:#ffffff;fill-opacity:1;fill-rule:nonzero;stroke:none"
         d="m 3886.18,1054.72 v 84.74 c 34.93,-14.88 66.71,-25.64 95.33,-32.33 28.6,-6.69 58.9,-10.04 90.86,-10.04 96.62,0 144.94,28.99 144.94,86.96 0,23.03 -7.07,41.06 -21.18,54.08 -14.13,12.99 -39.03,24.33 -74.7,34 l -91.43,24.53 c -53.51,14.86 -92.53,35.12 -117.07,60.76 -24.52,25.65 -36.78,58.54 -36.78,98.68 0,50.53 19.87,90.48 59.65,119.85 39.74,29.35 93.45,44.04 161.1,44.04 37.16,0 70.98,-2.98 101.45,-8.92 30.47,-5.96 56.87,-14.12 79.16,-24.53 v -84.73 c -57.24,23.03 -115.21,34.56 -173.92,34.56 -84.74,0 -127.1,-24.53 -127.1,-73.58 0,-20.82 6.49,-37.35 19.51,-49.62 13,-12.26 35.85,-22.86 68.57,-31.77 l 92.53,-24.53 c 56.48,-14.88 97.37,-35.51 122.65,-61.88 25.25,-26.39 37.9,-61.88 37.9,-106.48 0,-54.26 -21.18,-96.99 -63.54,-128.22 -42.38,-31.21 -101.1,-46.82 -176.17,-46.82 -35.67,0 -70.62,3.73 -104.8,11.15 -34.19,7.42 -63.18,17.46 -86.96,30.1" /></g></g></svg>