<?xml version="1.0" encoding="UTF-8"?>
<svg height="128px" viewBox="0 0 128 128" width="128px" xmlns="http://www.w3.org/2000/svg" xmlns:xlink="http://www.w3.org/1999/xlink">
    <linearGradient id="a" gradientUnits="userSpaceOnUse" x1="12.000027" x2="116.000027" y1="64.000244" y2="64.000244">
        <stop offset="0" stop-color="#963527"/>
        <stop offset="0.0416667" stop-color="#c74634"/>
        <stop offset="0.0833333" stop-color="#ac3d2d"/>
        <stop offset="0.916667" stop-color="#b43f2f" stop-opacity="0.941176"/>
        <stop offset="0.958333" stop-color="#c74634"/>
        <stop offset="1" stop-color="#963527"/>
    </linearGradient>
    <path d="m 20 32 h 88 c 4.417969 0 8 3.582031 8 8 v 68 c 0 4.417969 -3.582031 8 -8 8 h -88 c -4.417969 0 -8 -3.582031 -8 -8 v -68 c 0 -4.417969 3.582031 -8 8 -8 z m 0 0" fill="url(#a)"/>
    <path d="m 20 12 h 88 c 4.417969 0 8 3.582031 8 8 v 84 c 0 4.417969 -3.582031 8 -8 8 h -88 c -4.417969 0 -8 -3.582031 -8 -8 v -84 c 0 -4.417969 3.582031 -8 8 -8 z m 0 0" fill="#c74634"/>
    <path d="m 74.234375 73.953125 c 6.574219 0 11.917969 -5.355469 11.917969 -11.96875 c 0 -6.59375 -5.34375 -11.953125 -11.917969 -11.953125 h -20.460937 c -6.585938 0 -11.925782 5.359375 -11.925782 11.953125 c 0 6.613281 5.339844 11.96875 11.925782 11.96875 z m -20.929687 6.523437 c -10.171876 0 -18.421876 -8.277343 -18.421876 -18.492187 c 0 -10.207031 8.25 -18.46875 18.421876 -18.46875 h 21.402343 c 10.167969 0 18.410157 8.261719 18.410157 18.46875 c 0 10.226563 -8.242188 18.5 -18.410157 18.5 z" fill="#ffffff"/>
</svg>
