<?xml version="1.0" encoding="UTF-8"?>
<svg height="16px" viewBox="0 0 16 16" width="16px" xmlns="http://www.w3.org/2000/svg">
    <path d="m 3.230469 4.710938 l -1.035157 -0.597657 c -0.144531 -0.085937 -0.324218 -0.085937 -0.46875 -0.003906 c -0.144531 0.082031 -0.234374 0.238281 -0.234374 0.40625 s 0.09375 0.320313 0.238281 0.402344 l 1.035156 0.597656 c 0.222656 0.125 0.5 0.046875 0.628906 -0.171875 c 0.125 -0.21875 0.050781 -0.5 -0.164062 -0.632812 z m 1.878906 -1.246094 c 0.167969 0 0.320313 -0.085938 0.402344 -0.230469 s 0.082031 -0.320313 0 -0.464844 l -0.597657 -1.035156 c -0.082031 -0.144531 -0.234374 -0.238281 -0.402343 -0.238281 s -0.324219 0.089844 -0.40625 0.234375 s -0.082031 0.324219 0.003906 0.46875 l 0.597656 1.035156 c 0.085938 0.144531 0.238281 0.234375 0.402344 0.234375 z m 2.886719 -0.773438 c 0.257812 0 0.464844 -0.207031 0.464844 -0.464844 v -1.191406 c 0 -0.257812 -0.207032 -0.464844 -0.464844 -0.464844 c -0.257813 0 -0.464844 0.207032 -0.464844 0.464844 v 1.195313 c 0 0.253906 0.207031 0.464843 0.464844 0.464843 z m -1.742188 11.191406 c 0 0.496094 0.375 0.910157 0.871094 0.960938 v 0.003906 c 0 0.320313 0.257812 0.582032 0.582031 0.582032 h 0.578125 c 0.320313 0 0.582032 -0.261719 0.582032 -0.582032 v -0.003906 c 0.492187 -0.050781 0.871093 -0.464844 0.871093 -0.960938 v -1.238281 h -3.484375 z m 1.742188 -10.292968 c -1.925782 0 -3.484375 1.558594 -3.484375 3.480468 c 0 1.753907 1.742187 2.476563 1.742187 4.058594 v 0.816406 h 3.484375 v -0.816406 c 0 -1.578125 1.738281 -2.304687 1.738281 -4.058594 c 0 -1.921874 -1.558593 -3.480468 -3.480468 -3.480468 z m 6.441406 0.695312 c -0.0625 -0.105468 -0.164062 -0.183594 -0.28125 -0.214844 c -0.117188 -0.035156 -0.246094 -0.015624 -0.351562 0.042969 l -1.035157 0.597657 c -0.148437 0.082031 -0.238281 0.238281 -0.238281 0.40625 c -0.003906 0.167968 0.085938 0.320312 0.234375 0.40625 c 0.144531 0.082031 0.324219 0.078124 0.46875 -0.007813 l 1.035156 -0.597656 c 0.105469 -0.058594 0.183594 -0.160157 0.214844 -0.28125 c 0.03125 -0.117188 0.015625 -0.246094 -0.046875 -0.351563 z m -2.726562 -2.71875 c -0.109376 -0.0625 -0.234376 -0.078125 -0.351563 -0.046875 c -0.121094 0.03125 -0.222656 0.109375 -0.285156 0.214844 l -0.597657 1.035156 c -0.085937 0.144531 -0.089843 0.324219 -0.003906 0.46875 c 0.082032 0.148438 0.238282 0.238281 0.40625 0.234375 c 0.167969 0 0.320313 -0.089844 0.402344 -0.238281 l 0.597656 -1.035156 c 0.128906 -0.222657 0.050782 -0.503907 -0.167968 -0.632813 z m 0 0" fill="#ffffff"/>
</svg>
