<?xml version="1.0" encoding="UTF-8"?>
<svg height="128px" viewBox="0 0 128 128" width="128px" xmlns="http://www.w3.org/2000/svg" xmlns:xlink="http://www.w3.org/1999/xlink">
    <linearGradient id="a" gradientUnits="userSpaceOnUse" x1="12.000027" x2="116.000027" y1="64.000244" y2="64.000244">
        <stop offset="0" stop-color="#963527"/>
        <stop offset="0.0416667" stop-color="#c74634"/>
        <stop offset="0.0833333" stop-color="#ac3d2d"/>
        <stop offset="0.916667" stop-color="#b43f2f" stop-opacity="0.941176"/>
        <stop offset="0.958333" stop-color="#c74634"/>
        <stop offset="1" stop-color="#963527"/>
    </linearGradient>
    <path d="m 20 32 h 88 c 4.417969 0 8 3.582031 8 8 v 68 c 0 4.417969 -3.582031 8 -8 8 h -88 c -4.417969 0 -8 -3.582031 -8 -8 v -68 c 0 -4.417969 3.582031 -8 8 -8 z m 0 0" fill="url(#a)"/>
    <path d="m 20 12 h 88 c 4.417969 0 8 3.582031 8 8 v 84 c 0 4.417969 -3.582031 8 -8 8 h -88 c -4.417969 0 -8 -3.582031 -8 -8 v -84 c 0 -4.417969 3.582031 -8 8 -8 z m 0 0" fill="#c74634"/>
    <path d="m 41.761719 44.664062 l -4.828125 -2.789062 c -0.671875 -0.40625 -1.507813 -0.414062 -2.191406 -0.027344 c -0.679688 0.386719 -1.097657 1.113282 -1.09375 1.894532 c 0.003906 0.785156 0.433593 1.503906 1.117187 1.882812 l 4.828125 2.789062 c 1.035156 0.570313 2.335938 0.210938 2.925781 -0.8125 c 0.589844 -1.023437 0.253907 -2.328124 -0.757812 -2.9375 z m 8.773437 -5.816406 c 0.773438 0 1.488282 -0.414062 1.875 -1.082031 c 0.386719 -0.671875 0.386719 -1.496094 0 -2.167969 l -2.789062 -4.828125 c -0.378906 -0.683593 -1.097656 -1.113281 -1.882813 -1.117187 c -0.78125 -0.003906 -1.507812 0.414062 -1.894531 1.09375 c -0.386719 0.683594 -0.378906 1.519531 0.027344 2.191406 l 2.789062 4.828125 c 0.382813 0.671875 1.101563 1.085937 1.875 1.085937 z m 13.464844 -3.609375 c 1.195312 0 2.164062 -0.972656 2.164062 -2.167969 v -5.566406 c 0 -1.199218 -0.96875 -2.167968 -2.164062 -2.167968 c -1.199219 0 -2.167969 0.96875 -2.167969 2.167968 v 5.574219 c 0 1.195313 0.96875 2.164063 2.164063 2.167969 z m -8.128906 52.207031 c 0 2.320313 1.753906 4.261719 4.0625 4.492188 v 0.019531 c 0 1.496094 1.210937 2.707031 2.707031 2.707031 h 2.707031 c 1.496094 0 2.710938 -1.210937 2.710938 -2.707031 v -0.019531 c 2.304687 -0.230469 4.0625 -2.171875 4.0625 -4.492188 v -5.777343 h -16.25 z m 8.125 -48.027343 c -8.976563 0 -16.25 7.277343 -16.25 16.25 c 0 8.183593 8.125 11.554687 8.125 18.941406 v 3.808594 h 16.25 v -3.808594 c 0 -7.375 8.125 -10.757813 8.125 -18.941406 c 0 -8.972657 -7.277344 -16.25 -16.25 -16.25 z m 30.0625 3.25 c -0.289063 -0.496094 -0.761719 -0.859375 -1.316406 -1.011719 c -0.554688 -0.148438 -1.148438 -0.070312 -1.644532 0.21875 l -4.828125 2.789062 c -0.6875 0.378907 -1.113281 1.097657 -1.117187 1.882813 c -0.007813 0.78125 0.410156 1.507813 1.09375 1.894531 c 0.679687 0.386719 1.515625 0.378906 2.1875 -0.027344 l 4.832031 -2.785156 c 0.5 -0.285156 0.863281 -0.757812 1.011719 -1.316406 c 0.148437 -0.554688 0.070312 -1.144531 -0.214844 -1.644531 z m -12.730469 -12.6875 c -0.5 -0.289063 -1.089844 -0.367188 -1.644531 -0.21875 c -0.554688 0.148437 -1.03125 0.515625 -1.316406 1.011719 l -2.796876 4.824218 c -0.402343 0.671875 -0.414062 1.507813 -0.023437 2.191406 c 0.386719 0.679688 1.109375 1.097657 1.894531 1.09375 c 0.78125 -0.003906 1.503906 -0.433593 1.882813 -1.117187 l 2.789062 -4.828125 c 0.597657 -1.035156 0.246094 -2.355469 -0.785156 -2.957031 z m 0 0" fill="#ffffff"/>
</svg>
